# xmcd
# Track frame offsets:
# 150
# 29819
# 42391
# 60393
# 85582
# 103876
# 124876
# 145318
# 159126
#
# Disc length: 2434 seconds
# Revision: 0
# Processed by: cddbd v1.5.2PL0 Copyright (c) Steve Scherf et al.
# Submitted via: VisiTrax 2.10.3.257 - For more info visit www.synapsa.com
#
DISCID=76098009
DTITLE=Callahan, Bill - Woke Up On A Whaleheart
DYEAR=2007
DGENRE=Alternative
TTITLE0=From The Rivers To The Ocean
TTITLE1=Footprints
TTITLE2=Diamond Dancer
TTITLE3=Sycamore
TTITLE4=The Wheel
TTITLE5=Honeymoon Child
TTITLE6=Day
TTITLE7=Night
TTITLE8=A Man Needs A Woman Or A Man To Be A Man
EXTD=
EXTT0=
EXTT1=
EXTT2=
EXTT3=
EXTT4=
EXTT5=
EXTT6=
EXTT7=
EXTT8=
PLAYORDER=
